<svg width="900" height="700" viewBox="0 0 900 700" fill="none" xmlns="http://www.w3.org/2000/svg">
  <rect width="900" height="700" rx="48" fill="#F2F6FA"/>
  <circle cx="140" cy="160" r="90" fill="#1F5FA9" fill-opacity="0.2"/>
  <circle cx="760" cy="520" r="140" fill="#F2B949" fill-opacity="0.22"/>
  <rect x="100" y="140" width="700" height="420" rx="36" fill="#FFFFFF"/>
  <rect x="140" y="190" width="280" height="26" rx="13" fill="#D4432F" fill-opacity="0.2"/>
  <rect x="140" y="230" width="350" height="18" rx="9" fill="#1F5FA9" fill-opacity="0.2"/>
  <rect x="140" y="260" width="310" height="18" rx="9" fill="#2F9F8C" fill-opacity="0.2"/>
  <rect x="140" y="330" width="620" height="180" rx="28" fill="#F7F3EE"/>
  <rect x="180" y="360" width="180" height="110" rx="18" fill="#FFFFFF" stroke="#D4432F" stroke-width="2"/>
  <rect x="390" y="360" width="180" height="110" rx="18" fill="#FFFFFF" stroke="#1F5FA9" stroke-width="2"/>
  <rect x="600" y="360" width="130" height="110" rx="18" fill="#FFFFFF" stroke="#2F9F8C" stroke-width="2"/>
  <circle cx="220" cy="415" r="16" fill="#D4432F"/>
  <circle cx="430" cy="415" r="16" fill="#1F5FA9"/>
  <circle cx="665" cy="415" r="16" fill="#2F9F8C"/>
</svg>
